<svg width="231" height="232" xmlns="http://www.w3.org/2000/svg" xmlns:xlink="http://www.w3.org/1999/xlink" overflow="hidden"><defs><clipPath id="clip0"><path d="M506 244 737 244 737 476 506 476Z" fill-rule="evenodd" clip-rule="evenodd"/></clipPath><clipPath id="clip1"><path d="M530 291 713 291 713 428 530 428Z" fill-rule="evenodd" clip-rule="evenodd"/></clipPath><clipPath id="clip2"><path d="M530 291 713 291 713 428 530 428Z" fill-rule="evenodd" clip-rule="evenodd"/></clipPath><clipPath id="clip3"><path d="M530 291 713 291 713 428 530 428Z" fill-rule="evenodd" clip-rule="evenodd"/></clipPath><clipPath id="clip4"><path d="M530 291 713 291 713 428 530 428Z" fill-rule="evenodd" clip-rule="evenodd"/></clipPath><linearGradient x1="592.182" y1="328.654" x2="651.141" y2="269.695" gradientUnits="userSpaceOnUse" spreadMethod="reflect" id="fill5"><stop offset="0" stop-color="#A9D18E"/><stop offset="0.0142857" stop-color="#A8D08D"/><stop offset="0.0285714" stop-color="#A8D08D"/><stop offset="0.0428571" stop-color="#A8D08D"/><stop offset="0.0571429" stop-color="#A8D08D"/><stop offset="0.0714286" stop-color="#A8D08D"/><stop offset="0.0857143" stop-color="#A8D08D"/><stop offset="0.1" stop-color="#A8D08D"/><stop offset="0.114286" stop-color="#A8D08C"/><stop offset="0.128571" stop-color="#A7D08C"/><stop offset="0.142857" stop-color="#A7D08C"/><stop offset="0.157143" stop-color="#A7CF8B"/><stop offset="0.171429" stop-color="#A6CF8B"/><stop offset="0.185714" stop-color="#A6CF8A"/><stop offset="0.2" stop-color="#A6CF8A"/><stop offset="0.214286" stop-color="#A5CE8A"/><stop offset="0.228571" stop-color="#A5CE89"/><stop offset="0.242857" stop-color="#A4CE89"/><stop offset="0.257143" stop-color="#A4CE88"/><stop offset="0.271429" stop-color="#A4CD87"/><stop offset="0.285714" stop-color="#A3CD87"/><stop offset="0.3" stop-color="#A3CD86"/><stop offset="0.314286" stop-color="#A2CC85"/><stop offset="0.328571" stop-color="#A1CC85"/><stop offset="0.342857" stop-color="#A1CC84"/><stop offset="0.357143" stop-color="#A0CB83"/><stop offset="0.371429" stop-color="#A0CB82"/><stop offset="0.385714" stop-color="#9FCA82"/><stop offset="0.4" stop-color="#9ECA81"/><stop offset="0.414286" stop-color="#9ECA80"/><stop offset="0.428571" stop-color="#9DC97F"/><stop offset="0.442857" stop-color="#9CC97E"/><stop offset="0.457143" stop-color="#9BC87D"/><stop offset="0.471429" stop-color="#9BC87C"/><stop offset="0.485714" stop-color="#9AC77B"/><stop offset="0.5" stop-color="#99C77A"/><stop offset="0.514286" stop-color="#98C679"/><stop offset="0.528571" stop-color="#97C678"/><stop offset="0.542857" stop-color="#96C577"/><stop offset="0.557143" stop-color="#95C476"/><stop offset="0.571429" stop-color="#95C475"/><stop offset="0.585714" stop-color="#94C373"/><stop offset="0.6" stop-color="#93C372"/><stop offset="0.614286" stop-color="#92C271"/><stop offset="0.628571" stop-color="#91C170"/><stop offset="0.642857" stop-color="#90C16E"/><stop offset="0.657143" stop-color="#8FC06D"/><stop offset="0.671429" stop-color="#8DBF6C"/><stop offset="0.685714" stop-color="#8CBF6B"/><stop offset="0.7" stop-color="#8BBE69"/><stop offset="0.714286" stop-color="#8ABD68"/><stop offset="0.728571" stop-color="#89BD66"/><stop offset="0.742857" stop-color="#88BC65"/><stop offset="0.757143" stop-color="#87BB63"/><stop offset="0.771429" stop-color="#85BA62"/><stop offset="0.785714" stop-color="#84BA60"/><stop offset="0.8" stop-color="#83B95F"/><stop offset="0.814286" stop-color="#82B85D"/><stop offset="0.828571" stop-color="#80B75C"/><stop offset="0.842857" stop-color="#7FB65A"/><stop offset="0.857143" stop-color="#7EB658"/><stop offset="0.871429" stop-color="#7CB557"/><stop offset="0.885714" stop-color="#7BB455"/><stop offset="0.9" stop-color="#7AB353"/><stop offset="0.914286" stop-color="#78B251"/><stop offset="0.928571" stop-color="#77B150"/><stop offset="0.942857" stop-color="#75B04E"/><stop offset="0.957143" stop-color="#74AF4C"/><stop offset="0.971429" stop-color="#73AE4A"/><stop offset="0.985714" stop-color="#71AD48"/><stop offset="1" stop-color="#70AD47"/></linearGradient></defs><g clip-path="url(#clip0)" transform="translate(-506 -244)"><path d="M506 283.334C506 262.163 523.163 245 544.334 245L698.666 245C719.837 245 737 262.163 737 283.334L737 436.666C737 457.837 719.837 475 698.666 475L544.334 475C523.163 475 506 457.837 506 436.666Z" fill-rule="evenodd"/><g clip-path="url(#clip1)"><g clip-path="url(#clip2)"><g clip-path="url(#clip3)"><g clip-path="url(#clip4)"><path d="M661.351 291.44 680.62 299.175 621.701 346.74 621.701 346.804 621.661 346.772 621.621 346.804 621.621 346.74 562.703 299.175 581.972 291.44 621.661 325.682Z" fill="url(#fill5)" fill-rule="evenodd"/><path d="M3.98974 111 19.2259 104.212 41.806 55.7084 42 55.7084 41.903 55.5 42 55.2916 41.806 55.2916 19.2259 6.78794 3.98974 0 0 15.7603 17.282 55.5 0 95.2397Z" fill="#FFFFFF" fill-rule="evenodd" transform="matrix(1 0 0 -1 671 427)"/><path d="M568.105 316 553.232 322.788 531.189 371.292 531 371.292 531.095 371.5 531 371.708 531.189 371.708 553.232 420.212 568.105 427 572 411.24 555.129 371.5 572 331.76Z" fill="#FFFFFF" fill-rule="evenodd"/></g></g></g></g></g></svg>